<?xml version="1.0" standalone="no"?>
<!DOCTYPE svg PUBLIC "-//W3C//DTD SVG 20010904//EN"
 "http://www.w3.org/TR/2001/REC-SVG-20010904/DTD/svg10.dtd">
<svg version="1.0" xmlns="http://www.w3.org/2000/svg"
 width="512.000000pt" height="512.000000pt" viewBox="0 0 512.000000 512.000000"
 preserveAspectRatio="xMidYMid meet">
<metadata>
Created by potrace 1.14, written by Peter Selinger 2001-2017
</metadata>
<g transform="translate(0.000000,512.000000) scale(0.100000,-0.100000)"
fill="#000000" stroke="none">
<path d="M970 4944 c-39 -17 -727 -697 -762 -753 -58 -93 3 -222 112 -237 80
-11 90 -3 468 375 197 196 368 371 381 389 20 28 23 42 19 91 -5 68 -27 103
-84 131 -48 24 -86 25 -134 4z"/>
<path d="M4015 4940 c-22 -11 -49 -32 -59 -47 -27 -37 -33 -121 -12 -162 25
-48 731 -750 772 -767 45 -19 81 -17 130 5 81 37 114 146 66 222 -11 19 -184
197 -384 395 -374 372 -376 374 -452 374 -11 0 -39 -9 -61 -20z"/>
<path d="M2588 4615 c-2 -1 -55 -5 -118 -8 -63 -3 -131 -8 -150 -11 -199 -31
-255 -44 -428 -102 -646 -216 -1176 -747 -1392 -1394 -26 -79 -57 -188 -66
-235 -2 -11 -8 -42 -13 -70 -46 -234 -48 -541 -6 -786 88 -507 359 -985 745
-1311 130 -109 168 -137 306 -220 245 -149 528 -251 814 -293 209 -31 522 -28
695 6 28 5 66 12 85 15 58 9 249 64 340 99 442 170 804 461 1073 863 141 211
278 546 321 788 3 16 8 40 11 54 33 160 39 530 11 680 -3 14 -7 41 -10 60 -52
344 -200 684 -429 990 -80 108 -277 309 -383 393 -259 204 -622 375 -917 433
-34 6 -128 22 -167 28 -58 9 -317 26 -322 21z m187 -329 c66 -5 175 -21 245
-36 25 -6 56 -13 70 -16 110 -24 354 -125 482 -200 149 -87 260 -175 396 -312
245 -248 412 -550 495 -892 14 -58 28 -125 31 -150 3 -25 8 -67 12 -95 18
-143 9 -360 -22 -550 -37 -224 -155 -510 -294 -715 -146 -215 -373 -431 -590
-562 -244 -147 -483 -228 -790 -268 -69 -9 -364 -5 -440 5 -562 77 -1054 387
-1360 856 -163 250 -264 535 -298 844 -16 149 -1 439 32 590 33 153 76 275
150 430 253 527 745 915 1314 1036 122 26 138 28 267 35 61 4 111 8 113 9 3 2
63 -1 187 -9z"/>
<path d="M2527 3800 c-80 -50 -77 -29 -77 -624 0 -289 -3 -526 -7 -527 -5 0
-201 -1 -438 -2 -301 -2 -436 -6 -450 -14 -28 -16 -69 -63 -82 -93 -17 -40 -6
-109 23 -147 52 -68 33 -66 604 -67 283 -1 531 3 551 7 20 5 48 20 64 34 56
53 55 39 55 715 l0 623 -23 39 c-45 81 -143 105 -220 56z"/>
</g>
</svg>
